<svg width="360" height="44" viewBox="0 0 360 44" fill="none" xmlns="http://www.w3.org/2000/svg">
<path d="M243.61 18.5997C244.585 15.6716 244.249 12.464 242.69 9.80061C240.345 5.71552 235.631 3.61385 231.027 4.60287C228.979 2.29426 226.036 0.981387 222.951 1.0002C218.245 0.989449 214.07 4.02101 212.622 8.50117C209.599 9.12065 206.99 11.014 205.463 13.6976C203.1 17.7719 203.639 22.9078 206.795 26.4016C205.82 29.3297 206.156 32.5373 207.715 35.2007C210.06 39.2858 214.774 41.3875 219.378 40.3984C221.424 42.7071 224.368 44.0199 227.453 43.9998C232.162 44.0119 236.339 40.9776 237.786 36.4934C240.81 35.8739 243.419 33.9806 244.946 31.297C247.306 27.2227 246.766 22.0908 243.611 18.597L243.61 18.5997ZM227.456 41.1899C225.572 41.1926 223.746 40.5328 222.3 39.3248C222.366 39.2898 222.48 39.2267 222.554 39.181L231.112 34.2359C231.549 33.9873 231.818 33.521 231.815 33.0171V20.9459L235.432 23.0355C235.471 23.0543 235.497 23.0919 235.502 23.1349V33.1313C235.497 37.5765 231.899 41.1805 227.456 41.1899ZM210.152 33.7951C209.208 32.1638 208.868 30.2516 209.192 28.3958C209.255 28.4334 209.367 28.502 209.446 28.5477L218.004 33.4928C218.438 33.7467 218.975 33.7467 219.41 33.4928L229.857 27.4565V31.6357C229.86 31.6787 229.84 31.7203 229.806 31.7472L221.156 36.7447C217.303 38.9646 212.382 37.645 210.154 33.7951H210.152ZM207.9 15.1045C208.84 13.4705 210.324 12.2208 212.092 11.5717C212.092 11.6456 212.088 11.776 212.088 11.8673V21.7589C212.085 22.2615 212.354 22.7278 212.79 22.9764L223.237 29.0113L219.621 31.1008C219.584 31.125 219.539 31.1291 219.498 31.1116L210.847 26.11C207.002 23.8821 205.683 18.9598 207.899 15.1058L207.9 15.1045ZM237.616 22.0236L227.168 15.9874L230.785 13.8991C230.822 13.8749 230.867 13.8709 230.907 13.8884L239.559 18.8859C243.411 21.1125 244.731 26.0429 242.506 29.8968C241.564 31.5282 240.082 32.7779 238.316 33.4283V23.2411C238.32 22.7385 238.052 22.2736 237.617 22.0236H237.616ZM241.215 16.6028C241.152 16.5638 241.041 16.4967 240.961 16.451L232.404 11.5059C231.97 11.2519 231.433 11.2519 230.997 11.5059L220.55 17.5421V13.363C220.547 13.32 220.568 13.2783 220.601 13.2514L229.252 8.25795C233.105 6.03399 238.031 7.35762 240.252 11.2143C241.191 12.8429 241.531 14.7497 241.212 16.6028H241.215ZM218.584 24.0514L214.966 21.9618C214.927 21.943 214.901 21.9054 214.896 21.8624V11.866C214.899 7.4154 218.507 3.8087 222.955 3.81138C224.837 3.81138 226.658 4.47252 228.105 5.67655C228.039 5.71149 227.926 5.77465 227.851 5.82033L219.293 10.7654C218.855 11.014 218.587 11.479 218.589 11.9829L218.584 24.0514ZM220.549 19.8131L225.202 17.1242L229.856 19.8118V25.1882L225.202 27.8758L220.549 25.1882V19.8131Z" fill="black"/>
<path d="M253.062 21.6729C253.062 28.7035 257.574 33.6056 263.828 33.6056C270.081 33.6056 274.593 28.7035 274.593 21.6729C274.593 14.6422 270.081 9.74011 263.828 9.74011C257.574 9.74011 253.062 14.6422 253.062 21.6729ZM270.468 21.6729C270.468 26.704 267.728 29.9613 263.828 29.9613C259.927 29.9613 257.188 26.704 257.188 21.6729C257.188 16.6418 259.927 13.3844 263.828 13.3844C267.728 13.3844 270.468 16.6418 270.468 21.6729Z" fill="black"/>
<path d="M286.212 33.6056C290.95 33.6056 293.657 29.6065 293.657 24.8012C293.657 19.9958 290.95 15.9967 286.212 15.9967C284.02 15.9967 282.408 16.8675 281.345 18.1253V16.3193H277.477V39.056H281.345V31.4771C282.408 32.7349 284.02 33.6056 286.212 33.6056ZM281.248 24.3174C281.248 21.1246 283.053 19.3831 285.438 19.3831C288.242 19.3831 289.757 21.5761 289.757 24.8012C289.757 28.0263 288.242 30.2193 285.438 30.2193C283.053 30.2193 281.248 28.4455 281.248 25.3172V24.3174Z" fill="black"/>
<path d="M304.125 33.6056C307.509 33.6056 310.185 31.8318 311.377 28.8648L308.057 27.607C307.542 29.3485 306.027 30.3161 304.125 30.3161C301.643 30.3161 299.903 28.5423 299.612 25.6397H311.474V24.3497C311.474 19.7056 308.863 15.9967 303.964 15.9967C299.064 15.9967 295.906 19.8346 295.906 24.8012C295.906 30.0258 299.29 33.6056 304.125 33.6056ZM303.932 19.2541C306.381 19.2541 307.542 20.8666 307.574 22.7371H299.806C300.386 20.4473 301.933 19.2541 303.932 19.2541Z" fill="black"/>
<path d="M314.376 33.2509H318.244V23.3177C318.244 20.8989 320.017 19.6088 321.757 19.6088C323.885 19.6088 324.723 21.1246 324.723 23.2209V33.2509H328.591V22.0921C328.591 18.4478 326.463 15.9967 322.918 15.9967C320.726 15.9967 319.211 16.9965 318.244 18.1253V16.3193H314.376V33.2509Z" fill="black"/>
<path d="M339.919 10.0949L331.152 33.2509H335.245L337.212 27.9617H347.204L349.202 33.2509H353.36L344.593 10.0949H339.919ZM342.175 14.6745L345.85 24.3497H338.565L342.175 14.6745Z" fill="black"/>
<path d="M360 10.1621H355.874V33.3181H360V10.1621Z" fill="black"/>
<path d="M36.127 12.9233L13.895 0L11.116 1.61658V4.84663L8.33701 3.23005L5.55801 4.84663V8.07668L2.77899 6.4601L0 8.07668V33.9233L2.77899 35.5399L5.55801 33.9233V37.1534L8.33701 38.7699L11.116 37.1534V40.3834L13.895 42L36.127 29.0767V25.8466L33.348 24.23L36.127 22.6135V19.3834L33.348 17.7668L36.127 16.1503V12.9233ZM5.55801 30.6933L2.77899 32.3098V9.69326L5.55801 11.3098V30.6933ZM13.895 32.3067V29.0767L25.011 22.6166L27.79 24.2332L13.895 32.3067ZM22.232 21L13.895 25.8466V16.1534L22.232 21ZM25.011 19.3834L13.895 12.9233V9.69326L27.79 17.7699L25.011 19.3834ZM8.33701 6.4601L11.116 8.07668V11.3067L8.33701 9.69015V6.4601ZM8.33701 12.9233L11.116 14.5399V27.4632L8.33701 29.0798V12.9233ZM8.33701 32.3067L11.116 30.6902V33.9202L8.33701 35.5368V32.3067ZM33.348 27.4601L13.895 38.7668V35.5368L30.569 25.8435L33.348 27.4601ZM33.348 21L30.569 22.6166L27.79 21L30.569 19.3834L33.348 21ZM30.569 16.1534L13.895 6.4601V3.23005L33.348 14.5368L30.569 16.1534Z" fill="black"/>
<path d="M44.4651 32.3068V9.69336H54.2531C58.7461 9.69336 61.4721 12.4384 61.4721 16.4768C61.4721 20.5151 58.7461 23.2602 54.2531 23.2602H47.6761V32.3068H44.4651ZM58.2641 16.4768C58.2641 14.2167 56.9801 12.4384 54.2531 12.4384H47.6761V20.5151H54.2531C56.9801 20.5151 58.2641 18.7369 58.2641 16.4768ZM62.6611 19.8685C62.9821 17.1856 65.2271 15.0218 69.7541 15.0218C72.5141 15.0218 74.8551 15.7648 76.0441 17.7669C76.5561 18.6405 76.8471 19.8032 76.8471 21.1586V32.3037H73.7651V30.2021C72.8021 31.4954 70.8781 32.7856 68.1481 32.7856C64.7451 32.7856 61.8581 31.0073 61.8581 27.2923C61.8581 24.3856 63.8161 22.3182 67.9881 21.9607L73.7651 21.4757V21.1524C73.7651 18.8923 72.8021 17.4374 69.7541 17.4374C67.3141 17.4374 65.9991 18.4073 65.8381 19.8591H62.6611V19.8685ZM73.7621 25.0384V23.7451L68.3061 24.2301C66.0581 24.4229 64.9371 25.5234 64.9371 27.2985C64.9371 29.5617 66.5431 30.3669 68.4661 30.3669C71.3561 30.37 73.7621 28.4301 73.7621 25.0384ZM86.3421 18.0933C84.0971 18.0933 82.6521 19.3866 82.6521 22.2933V32.3099H79.5701V15.5068H82.6521V17.4467C83.4551 15.9918 84.7361 15.1835 87.1441 15.1835H88.0121V18.0902H86.3421V18.0933ZM88.9421 19.8685C89.2631 17.1856 91.5081 15.0218 96.0341 15.0218C98.7951 15.0218 101.135 15.7648 102.324 17.7669C102.837 18.6405 103.127 19.8032 103.127 21.1586V32.3037H100.045V30.2021C99.0821 31.4954 97.1581 32.7856 94.4291 32.7856C91.0261 32.7856 88.1391 31.0073 88.1391 27.2923C88.1391 24.3856 90.0961 22.3182 94.2681 21.9607L100.045 21.4757V21.1524C100.045 18.8923 99.0821 17.4374 96.0341 17.4374C93.5951 17.4374 92.2791 18.4073 92.1191 19.8591H88.9421V19.8685ZM100.045 25.0384V23.7451L94.5891 24.2301C92.3411 24.4229 91.2201 25.5234 91.2201 27.2985C91.2201 29.5617 92.8261 30.3669 94.7501 30.3669C97.6371 30.37 100.045 28.4301 100.045 25.0384ZM118.273 30.0467C117.309 31.6633 115.386 32.7918 112.817 32.7918C107.811 32.7918 105.085 28.7534 105.085 23.9068C105.085 19.0602 107.811 15.0218 112.817 15.0218C115.383 15.0218 117.309 16.1534 118.273 17.7669V9.69336H121.351V32.3099H118.27V30.0467H118.273ZM113.298 17.6084C109.929 17.6084 108.163 20.3534 108.163 23.9068C108.163 27.4602 109.929 30.2084 113.298 30.2084C116.667 30.2084 118.433 27.3016 118.433 23.9068C118.433 20.5151 116.667 17.6084 113.298 17.6084ZM133.227 29.7234V32.3068H123.343V29.7234H126.746V18.0933H123.343V15.5099H129.824V29.7265H133.227V29.7234ZM129.824 12.9234H126.743V9.69336H129.824V12.9234ZM146.19 29.7234C145.547 30.6933 143.784 32.1451 140.894 32.1451C136.21 32.1451 133.162 28.2685 133.162 23.5835C133.162 18.8985 136.21 15.0218 140.894 15.0218C143.781 15.0218 145.547 16.4768 146.19 17.4436V15.5037H149.271V30.5255C149.271 35.8571 146.224 38.6021 141.376 38.6021C137.652 38.6021 134.925 36.6622 134.283 33.7555H137.491C137.782 34.9182 138.967 36.1773 141.373 36.1773C144.902 36.1773 146.187 33.9172 146.187 30.5223V29.7234H146.19ZM141.218 17.6084C138.171 17.6084 136.244 20.3534 136.244 23.5866C136.244 26.8167 138.168 29.5648 141.218 29.5648C144.427 29.5648 146.353 26.8198 146.353 23.5866C146.35 20.3534 144.427 17.6084 141.218 17.6084ZM155.175 17.4467C156.139 15.6685 158.062 15.0249 159.989 15.0249C162.234 15.0249 164.321 15.9949 165.285 17.9317C166.248 16.1534 168.011 15.0249 170.902 15.0249C174.431 15.0249 177 17.1265 177 21.3234V32.3068H173.918V21.8084C173.918 19.0633 172.794 17.6084 170.259 17.6084C168.172 17.6084 166.088 18.9016 166.088 22.2933V32.3099H163.006V21.8115C163.006 19.0664 161.882 17.6115 159.347 17.6115C157.26 17.6115 155.175 18.9047 155.175 22.2964V32.313H152.094V15.5068H155.175V17.4467Z" fill="black"/>
</svg>
