<svg width="184" height="36" viewBox="0 0 184 36" fill="none" xmlns="http://www.w3.org/2000/svg">
<path d="M0 35.4805V33.8701H1.24368C3.10921 33.8701 4.24925 33.7143 4.66381 33.4026C5.11292 33.0909 5.33748 32.4329 5.33748 31.4286V4.20779C5.33748 3.20346 5.11292 2.54545 4.66381 2.23377C4.24925 1.92208 3.10921 1.76623 1.24368 1.76623H0V0.155845H29.1747L30.6257 11.8442H29.3302C29.0884 9.87013 28.812 8.31169 28.5011 7.16883C28.1902 6.02597 27.6547 5.02165 26.8947 4.15584C26.1692 3.25541 25.1846 2.63203 23.9409 2.28571C22.7318 1.93939 21.1426 1.76623 19.1735 1.76623H12.4887C11.3141 1.76623 10.5886 1.88745 10.3122 2.12987C10.0704 2.37229 9.94947 2.94372 9.94947 3.84416V16.3117H14.6133C16.997 16.3117 18.5171 15.8961 19.1735 15.0649C19.8644 14.2338 20.2099 12.6234 20.2099 10.2338H21.5054V24H20.2099C20.2099 21.645 19.8644 20.0519 19.1735 19.2208C18.5171 18.355 16.997 17.9221 14.6133 17.9221H9.94947V31.7922C9.94947 32.6926 10.0704 33.2641 10.3122 33.5065C10.5886 33.7489 11.3141 33.8701 12.4887 33.8701H19.3807C20.8662 33.8701 22.1445 33.7836 23.2154 33.6104C24.3209 33.4026 25.2537 33.0563 26.0137 32.5714C26.7737 32.0866 27.4129 31.5671 27.9311 31.013C28.4493 30.4589 28.8811 29.6797 29.2266 28.6753C29.6066 27.671 29.9002 26.7013 30.1075 25.7662C30.3148 24.8312 30.5393 23.6017 30.7812 22.0779H32.0767L29.9002 35.4805H0Z" fill="black"/>
<path d="M33.8224 12L34.8069 0.311687H66.4691L67.4536 12H66.1581C66.02 10.4416 65.8818 9.21212 65.7436 8.31169C65.6399 7.41126 65.4327 6.54545 65.1217 5.71429C64.8454 4.84848 64.5172 4.20779 64.1372 3.79221C63.7917 3.37662 63.2735 3.01299 62.5826 2.7013C61.8916 2.35498 61.097 2.14719 60.1988 2.07792C59.3006 1.97403 58.1778 1.92208 56.8305 1.92208C55.2414 1.92208 54.2568 1.95671 53.8768 2.02597C53.4622 2.12987 53.2031 2.33766 53.0995 2.64935C52.9958 2.92641 52.944 3.37662 52.944 4V31.3766C52.944 32.0693 53.0131 32.5541 53.1513 32.8312C53.2895 33.1082 53.7559 33.3507 54.5504 33.5584C55.345 33.7662 56.6232 33.8701 58.3851 33.8701H60.4579V35.4805C59.0415 35.3766 55.7596 35.3247 50.6121 35.3247C45.4992 35.3247 42.2345 35.3766 40.8181 35.4805V33.8701H42.8909C44.6528 33.8701 45.931 33.7662 46.7256 33.5584C47.5202 33.3507 47.9865 33.1082 48.1247 32.8312C48.2629 32.5541 48.332 32.0693 48.332 31.3766V4C48.332 3.51515 48.3147 3.16883 48.2802 2.96104C48.2456 2.75325 48.142 2.56277 47.9693 2.38961C47.8311 2.21645 47.5893 2.09524 47.2438 2.02597C46.8983 1.95671 45.9656 1.92208 44.4455 1.92208C43.0982 1.92208 41.9754 1.97403 41.0772 2.07792C40.179 2.14719 39.3844 2.35498 38.6935 2.7013C38.0025 3.01299 37.4671 3.37662 37.087 3.79221C36.7416 4.20779 36.4134 4.84848 36.1025 5.71429C35.8261 6.54545 35.6188 7.41126 35.4806 8.31169C35.377 9.21212 35.2561 10.4416 35.1179 12H33.8224Z" fill="black"/>
<path d="M69.5099 35.4805V33.8701H70.7535C72.6191 33.8701 73.7591 33.7143 74.1737 33.4026C74.6228 33.0909 74.8473 32.4329 74.8473 31.4286V4.05195C74.8473 3.04762 74.6228 2.38961 74.1737 2.07792C73.7591 1.76623 72.6191 1.61039 70.7535 1.61039H69.5099V0C70.719 0.103897 73.2755 0.155845 77.1792 0.155845C81.0485 0.155845 83.5877 0.103897 84.7968 0V1.61039H83.5531C81.6876 1.61039 80.5303 1.76623 80.0812 2.07792C79.6666 2.38961 79.4593 3.04762 79.4593 4.05195V16.2078H94.9536V4.05195C94.9536 3.04762 94.729 2.38961 94.2799 2.07792C93.8653 1.76623 92.7253 1.61039 90.8598 1.61039H89.6161V0C90.8252 0.103897 93.3817 0.155845 97.2855 0.155845C101.155 0.155845 103.694 0.103897 104.903 0V1.61039H103.659C101.794 1.61039 100.636 1.76623 100.187 2.07792C99.7728 2.38961 99.5655 3.04762 99.5655 4.05195V31.4286C99.5655 32.4329 99.7728 33.0909 100.187 33.4026C100.636 33.7143 101.794 33.8701 103.659 33.8701H104.903V35.4805C103.694 35.3766 101.137 35.3247 97.2336 35.3247C93.3644 35.3247 90.8252 35.3766 89.6161 35.4805V33.8701H90.8598C92.7253 33.8701 93.8653 33.7143 94.2799 33.4026C94.729 33.0909 94.9536 32.4329 94.9536 31.4286V17.8182H79.4593V31.4286C79.4593 32.4329 79.6666 33.0909 80.0812 33.4026C80.5303 33.7143 81.6876 33.8701 83.5531 33.8701H84.7968V35.4805C83.5877 35.3766 81.0312 35.3247 77.1274 35.3247C73.2582 35.3247 70.719 35.3766 69.5099 35.4805Z" fill="black"/>
<path d="M106.302 10.1299V8.77922C107.926 8.88312 109.532 8.93506 111.121 8.93506C112.952 8.93506 114.801 8.88312 116.666 8.77922V10.1299C114.939 10.1299 114.075 10.6147 114.075 11.5844C114.075 11.8615 114.248 12.381 114.593 13.1429L121.278 29.0909C121.382 29.3333 121.52 29.7143 121.693 30.2338C121.9 30.7186 122.055 31.0823 122.159 31.3247H122.211C122.315 31.0476 122.47 30.6667 122.677 30.1818C122.919 29.697 123.092 29.316 123.196 29.039L129.155 14.7532C129.639 13.6104 129.88 12.7965 129.88 12.3117C129.88 11.0303 129.155 10.303 127.704 10.1299V8.77922C129.155 8.88312 130.606 8.93506 132.057 8.93506C133.231 8.93506 134.423 8.88312 135.632 8.77922V10.1299C134.25 10.2338 133.231 10.6667 132.575 11.4286C131.919 12.1558 131.21 13.4199 130.45 15.2208L122.366 34.4416C122.366 34.4762 122.315 34.5801 122.211 34.7532C122.142 34.9264 122.09 35.0476 122.055 35.1169C122.021 35.1861 121.952 35.29 121.848 35.4286C121.779 35.5671 121.71 35.671 121.641 35.7403C121.572 35.8095 121.468 35.8615 121.33 35.8961C121.226 35.9654 121.105 36 120.967 36C120.449 36 119.983 35.4978 119.568 34.4935L110.292 12.3636C109.981 11.6364 109.636 11.1169 109.256 10.8052C108.876 10.4935 108.513 10.3203 108.168 10.2857C107.857 10.2165 107.235 10.1645 106.302 10.1299Z" fill="black"/>
<path d="M131.025 35.4805V34.1299C132.545 34.026 133.634 33.5931 134.29 32.8312C134.946 32.0346 135.62 30.7359 136.311 28.9351L143.825 9.55844C143.963 9.21212 144.067 8.9697 144.136 8.83117C144.205 8.65801 144.326 8.48485 144.498 8.31169C144.706 8.1039 144.93 8 145.172 8C145.656 8 146.088 8.50216 146.468 9.50649L154.862 31.2208C155.381 32.6061 155.864 33.4372 156.313 33.7143C156.763 33.9567 157.747 34.0952 159.267 34.1299V35.4805C157.609 35.3766 155.951 35.3247 154.292 35.3247C152.427 35.3247 150.561 35.3766 148.696 35.4805V34.1299C150.492 34.1299 151.391 33.645 151.391 32.6753C151.391 32.3983 151.321 32.1039 151.183 31.7922C151.08 31.4459 150.821 30.7879 150.406 29.8182C150.026 28.8485 149.646 27.8268 149.266 26.7532H138.539C138.366 27.2727 138.107 27.9481 137.762 28.7792C137.451 29.5758 137.226 30.1991 137.088 30.6494C136.95 31.0996 136.881 31.4978 136.881 31.8442C136.881 33.1948 137.624 33.9567 139.109 34.1299V35.4805C137.658 35.3766 136.225 35.3247 134.808 35.3247C133.53 35.3247 132.269 35.3766 131.025 35.4805ZM139.109 25.4026H148.748L143.928 12.987L139.109 25.4026Z" fill="black"/>
<path d="M161.666 35.4805V34.1299H162.08C163.393 34.1299 164.274 34.0087 164.723 33.7662C165.172 33.4892 165.397 32.8831 165.397 31.9481V12.3636C165.397 11.4286 165.172 10.8225 164.723 10.5455C164.274 10.2684 163.393 10.1299 162.08 10.1299H161.666V8.77922C163.531 8.88312 165.431 8.93506 167.366 8.93506C169.508 8.93506 171.667 8.88312 173.843 8.77922V10.1299H173.273C171.408 10.1299 170.25 10.303 169.801 10.6494C169.387 10.9957 169.179 11.7229 169.179 12.8312V32C169.179 33.0043 169.318 33.6104 169.594 33.8182C169.905 34.026 170.699 34.1299 171.978 34.1299H173.688C177.177 34.1299 179.578 33.2814 180.891 31.5844C181.789 30.4416 182.376 28.3636 182.653 25.3507H184L182.964 35.4805H161.666Z" fill="black"/>
</svg>
