<svg width="61" height="61" viewBox="0 0 61 61" fill="none" xmlns="http://www.w3.org/2000/svg">
<mask id="mask0_1_9784" style="mask-type:luminance" maskUnits="userSpaceOnUse" x="0" y="0" width="61" height="61">
<path d="M60.9667 0.00845337H0.0512695V60.9238H60.9667V0.00845337Z" fill="white"/>
</mask>
<g mask="url(#mask0_1_9784)">
<mask id="mask1_1_9784" style="mask-type:luminance" maskUnits="userSpaceOnUse" x="10" y="10" width="41" height="41">
<path d="M50.991 10.149H10.0305V50.7439H50.991V10.149Z" fill="white"/>
</mask>
<g mask="url(#mask1_1_9784)">
<path d="M25.7407 24.9255V21.0689C25.7407 20.7441 25.8626 20.5005 26.1466 20.3383L33.9005 15.8728C34.9559 15.2639 36.2144 14.9799 37.5133 14.9799C42.3845 14.9799 45.47 18.7553 45.47 22.7741C45.47 23.0582 45.47 23.383 45.4293 23.7078L37.3914 18.9987C36.9044 18.7146 36.417 18.7146 35.93 18.9987L25.7407 24.9255ZM43.846 39.9457V30.7305C43.846 30.162 43.6023 29.7561 43.1153 29.472L32.926 23.5451L36.2548 21.6371C36.5389 21.4749 36.7825 21.4749 37.0666 21.6371L44.8204 26.1025C47.0533 27.4017 48.5551 30.162 48.5551 32.8411C48.5551 35.9262 46.7285 38.768 43.846 39.9453V39.9457ZM23.3456 31.8268L20.0168 29.8783C19.7328 29.7161 19.6109 29.4724 19.6109 29.1476V20.2168C19.6109 15.8733 22.9397 12.5849 27.4458 12.5849C29.151 12.5849 30.7339 13.1533 32.0739 14.1681L24.0767 18.7961C23.5897 19.0801 23.346 19.4861 23.346 20.0546V31.8271L23.3456 31.8268ZM30.5107 35.9673L25.7407 33.2881V27.6051L30.5107 24.9259L35.2804 27.6051V33.2881L30.5107 35.9673ZM33.5756 48.3083C31.8705 48.3083 30.2876 47.7399 28.9476 46.7251L36.9447 42.0971C37.4318 41.8131 37.6754 41.4071 37.6754 40.8386V29.0661L41.045 31.0146C41.329 31.1767 41.4509 31.4204 41.4509 31.7453V40.6761C41.4509 45.0196 38.0814 48.308 33.5756 48.308V48.3083ZM23.9545 39.2557L16.2007 34.7904C13.9678 33.4911 12.4659 30.7309 12.4659 28.0517C12.4659 24.9259 14.3333 22.1249 17.2154 20.9475V30.2031C17.2154 30.7716 17.4591 31.1775 17.9461 31.4616L28.0951 37.3476L24.7663 39.2557C24.4823 39.4179 24.2385 39.4179 23.9545 39.2557ZM23.5082 45.9133C18.9209 45.9133 15.5515 42.4627 15.5515 38.2002C15.5515 37.8754 15.5922 37.5506 15.6325 37.2258L23.6297 41.8538C24.1167 42.1379 24.6041 42.1379 25.0911 41.8538L35.2804 35.9677V39.8243C35.2804 40.1491 35.1585 40.3927 34.8744 40.5549L27.1207 45.0204C26.0651 45.6293 24.8066 45.9133 23.5078 45.9133H23.5082ZM33.5756 50.7439C38.4876 50.7439 42.5875 47.2528 43.5215 42.6249C48.0681 41.4475 50.991 37.185 50.991 32.8415C50.991 29.9997 49.7732 27.2395 47.5811 25.2503C47.784 24.3977 47.9058 23.5451 47.9058 22.693C47.9058 16.888 43.1967 12.5441 37.7569 12.5441C36.6611 12.5441 35.6056 12.7063 34.5501 13.0718C32.723 11.2856 30.2061 10.149 27.4458 10.149C22.5338 10.149 18.434 13.64 17.4999 18.2679C12.9534 19.4453 10.0305 23.7078 10.0305 28.0513C10.0305 30.8931 11.2482 33.6533 13.4404 35.6425C13.2375 36.4951 13.1156 37.3476 13.1156 38.1999C13.1156 44.0048 17.8247 48.3487 23.2645 48.3487C24.3604 48.3487 25.4159 48.1865 26.4714 47.8209C28.298 49.6072 30.8149 50.7439 33.5756 50.7439Z" fill="black"/>
</g>
</g>
</svg>
