<svg width="43" height="43" viewBox="0 0 43 43" fill="none" xmlns="http://www.w3.org/2000/svg">
<path d="M30.4318 38.7963C33.1101 37.7094 35.5175 36.0688 37.4895 33.9865C40.6636 30.6486 42.3381 25.2944 42.3381 25.2944C42.2834 25.8631 42.1957 26.4284 42.0756 26.9875C41.9028 27.8276 41.6744 28.6557 41.3921 29.4664C41.0895 30.3742 40.7343 31.2644 40.3276 32.1323C39.8537 33.1612 39.2933 34.1498 38.6521 35.0876C37.1256 37.191 35.1872 38.9752 32.9496 40.3363C31.3922 41.2158 29.7287 41.9015 27.9979 42.3773C22.7096 43.7646 11.3271 43.4321 4.54263 35.0354C-0.395851 28.9208 -0.0493585 22.0572 0.0417009 20.7455C0.109108 19.7683 0.748889 12.2874 7.09351 6.60386C8.9487 4.9468 11.0802 3.61394 13.3955 2.66339C13.3909 2.03565 13.6144 1.42675 14.026 0.945666C14.4375 0.46458 15.0102 0.142629 15.6417 0.0374219C16.2734 -0.0678087 16.9224 0.0505729 17.4732 0.371341C18.0237 0.692133 18.44 1.19441 18.6472 1.78837C20.213 1.67247 21.43 1.66552 22.0378 1.71999C22.3973 1.75128 22.8135 1.80227 22.8135 1.80227C23.6068 1.8858 24.3894 2.0462 25.1505 2.28092C26.1039 2.53912 27.0138 2.93233 27.8515 3.44801C29.1073 4.24308 29.2585 4.83061 30.9936 5.89223C31.1804 6.00697 31.3353 6.09621 31.4347 6.15188L32.1135 6.34886C32.4423 6.44392 32.6172 6.4926 32.7675 6.53545C33.0499 6.61662 33.4521 6.73478 33.9572 6.89591C33.8353 7.13462 33.7324 7.33397 33.6567 7.47534C33.503 7.76739 33.3846 7.9842 33.3846 7.99228C32.8315 9.0434 32.0116 9.93732 31.0041 10.5884C29.9966 11.2394 26.5885 10.8212 25.1505 10.5884C23.7122 10.3555 19.1949 9.14313 14.8879 11.9988C9.70575 15.435 9.80156 21.6297 9.8347 22.5452C9.86312 23.3543 10.1292 28.3807 14.4373 31.8273C17.6078 34.3634 21.1011 34.5255 22.3441 34.5659C23.2832 34.596 27.0803 34.6263 30.7404 32.1323C32.3917 31.0162 33.7659 29.5507 34.7613 27.844C35.69 26.2083 36.2163 24.3828 36.2987 22.5129C36.3384 21.1756 36.1384 19.8418 35.7073 18.5724C35.2815 17.4638 34.7146 16.4125 34.0197 15.4431C35.4863 19.9633 34.1381 23.6718 34.1381 23.6718C33.7573 24.7183 33.2594 26.029 32.046 27.3363C30.4719 29.0308 28.3008 29.842 27.4885 30.1377C26.8667 30.3587 26.2306 30.5388 25.5844 30.6765C25.0871 30.7758 24.7089 30.8179 24.1889 30.8756L24.1653 30.8782C23.6553 30.939 23.1418 30.9665 22.628 30.9605C22.628 30.9605 23.5989 30.775 24.5296 30.5374C26.3965 30.0453 28.1188 29.1289 29.5567 27.8626C30.3208 27.18 31.5387 26.065 32.24 24.2108C32.6933 23.0123 32.74 22.0099 32.7826 21.0969L32.7829 21.0919C32.8433 19.6423 32.6757 18.192 32.2861 16.7921C31.9335 15.5179 31.4035 14.2973 30.711 13.1647L31.4583 13.2412C32.6162 13.3968 33.762 13.6292 34.8878 13.9367C36.1167 14.2726 37.078 14.5439 38.199 15.2115C38.7087 15.5151 39.2161 15.8176 39.7364 16.3704C40.6932 17.389 40.9935 18.5133 41.1553 19.1519C41.6688 21.172 41.2478 22.8722 40.9191 24.1354C40.3892 26.1694 39.5212 27.5682 38.9087 28.5395C38.0223 29.9476 36.9486 31.2338 35.7157 32.3639C32.6893 35.1177 29.3179 36.2348 27.3785 36.71C24.753 37.4118 21.997 37.5048 19.3285 36.9818C16.6601 36.4588 14.1527 35.334 12.0048 33.6967C9.07188 31.6106 7.65041 29.2718 7.00476 28.0004C5.04876 24.1504 5.18596 20.1974 5.26989 18.3279C5.29477 17.7865 5.32318 17.4564 5.32318 17.4134C4.75308 19.3337 3.84732 23.4412 5.31009 28.1663C5.70036 29.4282 6.56481 32.1171 8.98917 34.6841C11.76 37.6175 14.9328 38.6558 16.676 39.204C18.6783 39.8336 24.2659 41.2497 30.4318 38.7963Z" fill="black"/>
</svg>
