<svg width="176" height="36" viewBox="0 0 176 36" fill="none" xmlns="http://www.w3.org/2000/svg">
<path d="M25.4778 32.4806C27.7201 31.5706 29.7356 30.1971 31.3865 28.4538C34.0439 25.6593 35.4458 21.1767 35.4458 21.1767C35.4 21.6528 35.3266 22.1261 35.2261 22.5942C35.0814 23.2975 34.8902 23.9908 34.6538 24.6695C34.4005 25.4295 34.1031 26.1748 33.7626 26.9014C33.3659 27.7628 32.8967 28.5905 32.3599 29.3756C31.0819 31.1366 29.459 32.6304 27.5857 33.7699C26.2818 34.5062 24.8891 35.0803 23.4401 35.4786C19.0127 36.6401 9.48315 36.3617 3.80313 29.3319C-0.33141 24.2127 -0.0413233 18.4665 0.0349123 17.3683C0.0913458 16.5502 0.626976 10.2871 5.93875 5.52881C7.49193 4.1415 9.27648 3.02562 11.2148 2.22981C11.211 1.70426 11.3981 1.19449 11.7427 0.79172C12.0872 0.38895 12.5667 0.11941 13.0954 0.03133C13.6242 -0.05677 14.1676 0.0423401 14.6287 0.31089C15.0896 0.57946 15.4381 0.99997 15.6116 1.49724C16.9225 1.40021 17.9414 1.39439 18.4502 1.43999C18.7512 1.46619 19.0997 1.50888 19.0997 1.50888C19.7638 1.57881 20.419 1.7131 21.0562 1.90961C21.8544 2.12577 22.6162 2.45497 23.3175 2.8867C24.3689 3.55234 24.4955 4.04423 25.9481 4.93303C26.1045 5.02909 26.2342 5.1038 26.3174 5.15041L26.8857 5.31532C27.161 5.39491 27.3074 5.43566 27.4332 5.47154C27.6697 5.53949 28.0064 5.63842 28.4293 5.77332C28.3272 5.97317 28.2411 6.14006 28.1777 6.25842C28.049 6.50293 27.9499 6.68444 27.9499 6.69121C27.4868 7.57121 26.8004 8.31961 25.9569 8.86471C25.1134 9.40971 22.2601 9.05961 21.0562 8.86471C19.8521 8.66971 16.0701 7.65471 12.4643 10.0455C8.12574 12.9223 8.20595 18.1086 8.2337 18.875C8.25749 19.5524 8.48023 23.7606 12.087 26.6461C14.7414 28.7693 17.666 28.905 18.7067 28.9389C19.4929 28.9641 22.6719 28.9894 25.7361 26.9014C27.1186 25.967 28.2691 24.7401 29.1025 23.3112C29.88 21.9418 30.3206 20.4135 30.3896 18.848C30.4228 17.7284 30.2554 16.6117 29.8945 15.549C29.538 14.6208 29.0634 13.7407 28.4816 12.9291C29.7094 16.7134 28.5807 19.8182 28.5807 19.8182C28.2619 20.6944 27.8451 21.7917 26.8292 22.8862C25.5113 24.3048 23.6937 24.984 23.0136 25.2315C22.493 25.4166 21.9605 25.5673 21.4195 25.6826C21.0031 25.7658 20.6865 25.801 20.2512 25.8493L20.2314 25.8515C19.8044 25.9024 19.3745 25.9254 18.9444 25.9204C18.9444 25.9204 19.7572 25.7651 20.5364 25.5662C22.0994 25.1542 23.5413 24.387 24.7451 23.3268C25.3848 22.7553 26.4045 21.8218 26.9916 20.2695C27.3711 19.2661 27.4102 18.4269 27.4459 17.6625L27.4461 17.6583C27.4967 16.4447 27.3564 15.2305 27.0302 14.0585C26.735 12.9917 26.2913 11.9698 25.7115 11.0216L26.3372 11.0856C27.3066 11.2159 28.2658 11.4105 29.2084 11.6679C30.2372 11.9491 31.042 12.1763 31.9805 12.7352C32.4073 12.9894 32.8321 13.2426 33.2677 13.7054C34.0687 14.5582 34.3201 15.4995 34.4556 16.0341C34.8855 17.7254 34.533 19.1488 34.2578 20.2064C33.8142 21.9092 33.0875 23.0803 32.5747 23.8935C31.8326 25.0724 30.9337 26.1492 29.9015 27.0953C27.3678 29.4008 24.5452 30.3361 22.9215 30.7339C20.7234 31.3215 18.4161 31.3993 16.182 30.9615C13.948 30.5236 11.8488 29.5819 10.0505 28.2112C7.59506 26.4647 6.40499 24.5066 5.86445 23.4422C4.22687 20.2189 4.34173 16.9094 4.412 15.3443C4.43283 14.891 4.45661 14.6146 4.45661 14.5786C3.97932 16.1863 3.22101 19.6252 4.44565 23.5811C4.77239 24.6375 5.49612 26.8887 7.52581 29.0378C9.84556 31.4937 12.5019 32.363 13.9613 32.8219C15.6376 33.349 20.3156 34.5346 25.4778 32.4806Z" fill="black"/>
<path d="M67.1922 25.5751C66.247 27.3627 64.9432 28.7861 63.2484 29.7792C61.5535 30.8054 59.663 31.302 57.5118 31.302C55.3606 31.302 53.4376 30.8054 51.7427 29.7792C50.0478 28.7861 48.7441 27.3627 47.8315 25.5751C46.8862 23.7875 46.4299 21.7682 46.4299 19.5172C46.4299 17.2661 46.8862 15.2468 47.8315 13.4592C48.7441 11.6716 50.0478 10.2813 51.7427 9.25512C53.4376 8.26202 55.3606 7.73232 57.5118 7.73232C59.663 7.73232 61.5535 8.26202 63.2484 9.25512C64.9432 10.2813 66.247 11.6716 67.1922 13.4592C68.1048 15.2468 68.5938 17.2661 68.5938 19.5172C68.5938 21.7682 68.1048 23.7875 67.1922 25.5751ZM51.1886 23.8868C51.7753 25.1779 52.6228 26.171 53.731 26.8992C54.8391 27.6275 56.0777 27.9585 57.5118 27.9585C58.9134 27.9585 60.1519 27.6275 61.2601 26.8992C62.3683 26.171 63.2158 25.1779 63.835 23.8868C64.4217 22.5958 64.7477 21.1392 64.7477 19.5172C64.7477 17.9282 64.4217 16.4716 63.835 15.1806C63.2158 13.8896 62.3683 12.8965 61.2601 12.1682C60.1519 11.4399 58.9134 11.0758 57.5118 11.0758C56.0777 11.0758 54.8391 11.4399 53.731 12.1682C52.6228 12.8965 51.7753 13.8896 51.1886 15.1806C50.5693 16.4716 50.276 17.9282 50.276 19.5172C50.276 21.1392 50.5693 22.5958 51.1886 23.8868ZM72.5998 17.2992H69.699V14.1544H72.5998V9.42062H76.1525V14.1544H80.1616V17.2992H76.1525V26.1379C76.1525 26.7999 76.2829 27.2965 76.5437 27.5613C76.8044 27.8261 77.2281 27.9585 77.88 27.9585H80.5527V31.1034H77.1629C75.5658 31.1034 74.3925 30.7392 73.6754 29.9779C72.9583 29.2496 72.5998 28.091 72.5998 26.502V17.2992ZM82.4418 9.42062H85.9619V14.1544H90.0036V17.2992H85.9619V26.1379C85.9619 26.7999 86.0923 27.2965 86.3531 27.5613C86.6138 27.8261 87.0375 27.9585 87.6894 27.9585H90.3621V31.1034H86.9723C85.3752 31.1034 84.2345 30.7392 83.5174 29.9779C82.8003 29.2496 82.4418 28.091 82.4418 26.502V9.42062ZM92.3183 18.0937C93.0027 16.7696 93.948 15.7765 95.1865 15.0482C96.4251 14.3199 97.8266 13.9558 99.4237 13.9558C101.021 13.9558 102.422 14.2868 103.661 14.9489C104.899 15.611 105.845 16.571 106.562 17.7627C107.279 18.9875 107.637 20.411 107.67 22.033C107.67 22.4965 107.637 22.9268 107.572 23.3903H94.991V23.5889C95.0561 25.0785 95.5125 26.2372 96.3599 27.0979C97.1748 27.9585 98.2829 28.3889 99.6519 28.3889C100.727 28.3889 101.64 28.1572 102.39 27.6275C103.107 27.0979 103.596 26.3696 103.856 25.4096H107.377C107.051 27.131 106.236 28.5544 104.899 29.6468C103.563 30.7723 101.901 31.302 99.9126 31.302C98.1526 31.302 96.6532 30.971 95.3495 30.2427C94.0457 29.5144 93.0679 28.5213 92.3509 27.1972C91.6338 25.9061 91.3079 24.3834 91.3079 22.662C91.3079 20.9406 91.6338 19.4179 92.3183 18.0937ZM104.085 20.7751C103.922 19.5503 103.433 18.5903 102.618 17.8951C101.803 17.1999 100.793 16.8358 99.5541 16.8358C98.3807 16.8358 97.4029 17.1999 96.5555 17.9282C95.708 18.6565 95.2517 19.5834 95.1213 20.7751H104.085ZM119.74 14.1544V17.4979H118.175C116.709 17.4979 115.666 17.9944 115.014 18.9544C114.362 19.9144 114.036 21.1392 114.036 22.5958V31.1034H110.516V14.1544H113.645L114.036 16.7034C114.492 15.9089 115.112 15.313 115.894 14.8496C116.643 14.3861 117.654 14.1544 118.958 14.1544H119.74ZM125.169 23.5558C125.267 24.9461 125.821 26.0385 126.798 26.8661C127.776 27.6937 129.08 28.091 130.677 28.091C132.046 28.091 133.187 27.793 134.034 27.1972C134.882 26.6013 135.338 25.7406 135.338 24.6482C135.338 23.8868 135.077 23.291 134.621 22.8275C134.165 22.3641 133.513 22.033 132.731 21.7682C131.916 21.5365 130.775 21.2716 129.341 21.0068C127.841 20.742 126.57 20.411 125.527 19.9806C124.484 19.5503 123.604 18.8882 122.952 17.9944C122.301 17.1337 121.975 15.9751 121.975 14.5185C121.975 13.1944 122.301 12.0358 122.985 10.9765C123.669 9.95032 124.615 9.15582 125.853 8.55992C127.092 7.99722 128.493 7.69922 130.09 7.69922C131.72 7.69922 133.154 8.03032 134.458 8.62612C135.729 9.25512 136.739 10.1158 137.489 11.1751C138.206 12.2675 138.63 13.4923 138.695 14.8827H135.012C134.882 13.691 134.36 12.731 133.48 12.0027C132.568 11.2744 131.459 10.9103 130.09 10.9103C128.754 10.9103 127.679 11.2082 126.896 11.8041C126.114 12.3999 125.723 13.1944 125.723 14.2537C125.723 15.0151 125.951 15.611 126.407 16.0413C126.864 16.5047 127.516 16.8358 128.298 17.0344C129.08 17.2661 130.188 17.4979 131.655 17.7627C133.122 18.0275 134.393 18.3916 135.468 18.822C136.511 19.2854 137.391 19.9144 138.076 20.7751C138.728 21.6358 139.086 22.7944 139.086 24.1848C139.086 25.5751 138.728 26.7999 138.011 27.8592C137.293 28.9517 136.283 29.8123 135.012 30.4082C133.708 31.0041 132.274 31.302 130.645 31.302C128.819 31.302 127.255 30.971 125.886 30.3089C124.517 29.6468 123.441 28.753 122.659 27.5613C121.877 26.3696 121.486 25.0123 121.486 23.4896L125.169 23.5558ZM142.419 18.0937C143.103 16.7696 144.049 15.7765 145.287 15.0482C146.526 14.3199 147.927 13.9558 149.524 13.9558C151.121 13.9558 152.523 14.2868 153.761 14.9489C155 15.611 155.945 16.571 156.662 17.7627C157.379 18.9875 157.738 20.411 157.771 22.033C157.771 22.4965 157.738 22.9268 157.673 23.3903H145.092V23.5889C145.157 25.0785 145.613 26.2372 146.46 27.0979C147.275 27.9585 148.383 28.3889 149.752 28.3889C150.828 28.3889 151.741 28.1572 152.49 27.6275C153.207 27.0979 153.696 26.3696 153.957 25.4096H157.477C157.151 27.131 156.336 28.5544 155 29.6468C153.664 30.7723 152.001 31.302 150.013 31.302C148.253 31.302 146.754 30.971 145.45 30.2427C144.146 29.5144 143.168 28.5213 142.451 27.1972C141.734 25.9061 141.408 24.3834 141.408 22.662C141.408 20.9406 141.734 19.4179 142.419 18.0937ZM154.185 20.7751C154.022 19.5503 153.533 18.5903 152.718 17.8951C151.904 17.1999 150.893 16.8358 149.655 16.8358C148.481 16.8358 147.503 17.1999 146.656 17.9282C145.809 18.6565 145.352 19.5834 145.222 20.7751H154.185ZM173.49 29.6468C172.121 30.7723 170.394 31.302 168.308 31.302C166.646 31.302 165.179 30.971 163.94 30.2427C162.669 29.5144 161.691 28.4882 161.007 27.1641C160.322 25.8399 159.996 24.3172 159.996 22.5958C159.996 20.8744 160.322 19.3848 161.039 18.0606C161.724 16.7696 162.702 15.7765 163.973 15.0482C165.244 14.3199 166.711 13.9558 168.406 13.9558C170.492 13.9558 172.187 14.5185 173.523 15.6441C174.827 16.7696 175.674 18.2592 176 20.1792H172.382C172.121 19.2192 171.665 18.4579 170.948 17.862C170.231 17.2992 169.351 17.0013 168.308 17.0013C166.874 17.0013 165.733 17.531 164.886 18.5572C164.038 19.6165 163.614 20.9406 163.614 22.5958C163.614 24.2841 164.038 25.6413 164.886 26.7006C165.733 27.7599 166.874 28.2565 168.308 28.2565C169.383 28.2565 170.296 27.9917 171.013 27.3958C171.73 26.7999 172.187 26.0054 172.415 25.0123H176C175.674 26.9985 174.827 28.5213 173.49 29.6468Z" fill="black"/>
</svg>
