<svg width="61" height="61" viewBox="0 0 61 61" fill="none" xmlns="http://www.w3.org/2000/svg">
<path d="M49 22.4233L26.2308 9.5L23.3846 11.1166V14.3466L20.5385 12.7301L17.6923 14.3466V17.5767L14.8462 15.9601L12 17.5767V43.4233L14.8462 45.0399L17.6923 43.4233V46.6534L20.5385 48.27L23.3846 46.6534V49.8834L26.2308 51.5L49 38.5767V35.3466L46.1538 33.7301L49 32.1135V28.8834L46.1538 27.2668L49 25.6503V22.4233ZM17.6923 40.1933L14.8462 41.8098V19.1933L17.6923 20.8098V40.1933ZM26.2308 41.8067V38.5767L37.6154 32.1166L40.4615 33.7332L26.2308 41.8067ZM34.7692 30.5L26.2308 35.3466V25.6534L34.7692 30.5ZM37.6154 28.8834L26.2308 22.4233V19.1933L40.4615 27.2699L37.6154 28.8834ZM20.5385 15.9601L23.3846 17.5767V20.8067L20.5385 19.1902V15.9601ZM20.5385 22.4233L23.3846 24.0399V36.9632L20.5385 38.5798V22.4233ZM20.5385 41.8067L23.3846 40.1902V43.4202L20.5385 45.0368V41.8067ZM46.1538 36.9601L26.2308 48.2668V45.0368L43.3077 35.3435L46.1538 36.9601ZM46.1538 30.5L43.3077 32.1166L40.4615 30.5L43.3077 28.8834L46.1538 30.5ZM43.3077 25.6534L26.2308 15.9601V12.7301L46.1538 24.0368L43.3077 25.6534Z" fill="black"/>
</svg>
